<svg xmlns="http://www.w3.org/2000/svg" viewBox="0 0 24 24" width="50px" height="50px">
  <path d="M15 14.75H9a.75.75 0 0 1 0-1.5h6a.75.75 0 0 1 0 1.5m.75 3.25a.76.76 0 0 0-.75-.75H9a.75.75 0 0 0 0 1.5h6a.76.76 0 0 0 .75-.75m3-6.5v9a2.25 2.25 0 0 1-2.25 2.25h-.75v.5a.75.75 0 0 1-1.5 0v-.5h-4.5v.5a.75.75 0 0 1-1.5 0v-.5H7.5a2.25 2.25 0 0 1-2.25-2.25v-9A2.25 2.25 0 0 1 7.5 9.25h1.75v-8C9.25.56 9.81 0 10.5 0h3c.69 0 1.25.56 1.25 1.25v8h1.75a2.25 2.25 0 0 1 2.25 2.25m-8-2.25h2.5V1.5h-2.5zm6.5 2.25a.76.76 0 0 0-.75-.75h-9a.76.76 0 0 0-.75.75v9a.76.76 0 0 0 .75.75h9a.76.76 0 0 0 .75-.75z"/>
  <circle cx="18" cy="18" r="6" fill="white"/>
  <text x="16" y="20" font-size="8" font-weight="bold" fill="black">$</text>
</svg>
