<svg fill="#000000" height="200px" width="200px" version="1.1" id="Layer_1" xmlns="http://www.w3.org/2000/svg" xmlns:xlink="http://www.w3.org/1999/xlink" viewBox="0 0 512 512" xml:space="preserve"><g id="SVGRepo_bgCarrier" stroke-width="0"></g><g id="SVGRepo_tracerCarrier" stroke-linecap="round" stroke-linejoin="round"></g><g id="SVGRepo_iconCarrier"> <g> <g> <path d="M228.605,250.34c-22.309-12.975-52.826-29.355-91.117-40.935C98.764,197.692,56.464,191.999,8.17,191.999 c-4.513,0-8.17,3.657-8.17,8.17s3.657,8.17,8.17,8.17c96.048,0,154.302,22.436,212.22,56.125c1.293,0.751,2.705,1.109,4.1,1.109 c2.814,0,5.554-1.455,7.07-4.063C233.828,257.611,232.506,252.609,228.605,250.34z"></path> </g> </g> <g> <g> <path d="M503.83,191.999c-126.228,0-190.223,39.382-252.112,77.467C189.006,308.059,129.772,344.51,8.17,344.51 c-4.513,0-8.17,3.657-8.17,8.17s3.657,8.17,8.17,8.17c126.228,0,190.223-39.382,252.112-77.467 c62.711-38.593,121.945-75.044,243.547-75.044c4.513,0,8.17-3.657,8.17-8.17S508.343,191.999,503.83,191.999z"></path> </g> </g> <g> <g> <path d="M256,53.106c-31.535,0-57.191,25.657-57.191,57.192c0,31.535,25.657,57.191,57.191,57.191s57.191-25.657,57.191-57.191 C313.191,78.763,287.535,53.106,256,53.106z M256,151.148c-22.526,0-40.851-18.325-40.851-40.851 c0-22.526,18.325-40.851,40.851-40.851s40.851,18.325,40.851,40.851C296.851,132.823,278.526,151.148,256,151.148z"></path> </g> </g> <g> <g> <path d="M256.001,20.426c-42.573,0-79.613,30.242-88.072,71.907c-0.899,4.421,1.958,8.733,6.38,9.631 c4.421,0.898,8.734-1.959,9.632-6.38c6.92-34.082,37.223-58.818,72.058-58.818c40.546,0,73.532,32.986,73.532,73.532 c0,14.478-4.215,28.494-12.188,40.536c-2.491,3.762-1.462,8.83,2.301,11.323c1.388,0.919,2.954,1.36,4.503,1.36 c2.649,0,5.247-1.287,6.819-3.66c9.751-14.725,14.906-31.861,14.906-49.557C345.873,60.743,305.556,20.426,256.001,20.426z"></path> </g> </g> <g> <g> <path d="M307.858,173.941c-2.491-3.763-7.562-4.791-11.323-2.301c-12.041,7.974-26.058,12.189-40.535,12.189 c-34.835,0-65.138-24.736-72.058-58.817c-0.897-4.422-5.212-7.282-9.632-6.38c-4.423,0.897-7.279,5.209-6.38,9.632 c8.458,41.664,45.497,71.906,88.07,71.906c17.697,0,34.833-5.154,49.557-14.906C309.32,182.773,310.349,177.704,307.858,173.941z"></path> </g> </g> <g> <g> <circle cx="49.021" cy="242.023" r="8.17"></circle> </g> </g> <g> <g> <circle cx="81.702" cy="274.704" r="8.17"></circle> </g> </g> <g> <g> <circle cx="397.617" cy="450.723" r="8.17"></circle> </g> </g> <g> <g> <circle cx="430.298" cy="483.404" r="8.17"></circle> </g> </g> <g> <g> <circle cx="462.979" cy="274.704" r="8.17"></circle> </g> </g> <g> <g> <circle cx="81.702" cy="450.723" r="8.17"></circle> </g> </g> </g></svg>