<svg fill="#000000" height="200px" width="200px" version="1.1" id="Layer_1" xmlns="http://www.w3.org/2000/svg" xmlns:xlink="http://www.w3.org/1999/xlink" viewBox="0 0 512 512" xml:space="preserve"><g id="SVGRepo_bgCarrier" stroke-width="0"></g><g id="SVGRepo_tracerCarrier" stroke-linecap="round" stroke-linejoin="round"></g><g id="SVGRepo_iconCarrier"> <g> <g> <g> <path d="M99.705,59.284c10.796,0,20.948,4.204,28.583,11.84c3.157,3.156,8.276,3.156,11.432,0c3.157-3.158,3.157-8.276,0-11.433 c-10.688-10.688-24.899-16.575-40.015-16.575c-31.204,0-56.589,25.387-56.589,56.589c0,28.151,21.005,52.255,48.859,56.066 c0.372,0.051,0.742,0.076,1.106,0.076c3.978,0,7.445-2.938,7.999-6.989c0.606-4.424-2.49-8.5-6.914-9.105 c-19.885-2.722-34.882-19.938-34.882-40.047C59.284,77.417,77.417,59.284,99.705,59.284z"></path> <path d="M83.537,347.082c4.465,0,8.084-3.618,8.084-8.084c0-4.466-3.62-8.084-8.084-8.084H57.128 c-4.465,0-8.084,3.618-8.084,8.084c0,4.466,3.62,8.084,8.084,8.084H83.537z"></path> <path d="M503.916,495.831H285.621c-0.857-38.842-27.532-72.836-64.73-83.073c-10.408-37.813-45.358-64.751-85-64.751 c-22.389,0-43.73,8.406-60.093,23.671c-15.29,14.264-24.927,33.266-27.403,53.866c-23.106,16.163-36.991,42.054-37.596,70.289 H8.084C3.62,495.832,0,499.45,0,503.916C0,508.382,3.62,512,8.084,512h54.434c4.465,0,8.084-3.618,8.084-8.084 c0-4.466-3.62-8.084-8.084-8.084H26.972c0.63-24.007,13.025-45.904,33.431-58.868c2.156-1.368,3.538-3.676,3.727-6.223 c2.779-37.326,34.3-66.565,71.761-66.565c33.783,0,63.393,23.952,70.404,56.951c0.664,3.124,3.104,5.564,6.228,6.227 c32.371,6.877,56.035,35.499,56.925,68.479H93.238c-4.465,0-8.084,3.619-8.084,8.084c0,4.466,3.62,8.084,8.084,8.084h410.678 c4.465,0,8.084-3.618,8.084-8.084C512,499.45,508.38,495.832,503.916,495.831z"></path> <path d="M464.034,59.284h18.324c7.43,0,13.474,6.044,13.474,13.474s-6.044,13.474-13.474,13.474h-75.453 c-7.43,0-13.474-6.044-13.474-13.474c0-4.466-3.62-8.084-8.084-8.084h-23.175c-4.465,0-8.084,3.618-8.084,8.084 c0,4.466,3.62,8.084,8.084,8.084h16.212c3.527,12.428,14.978,21.558,28.521,21.558h75.453C498.703,102.4,512,89.102,512,72.758 c0-16.344-13.297-29.642-29.642-29.642h-18.324c-4.465,0-8.084,3.619-8.084,8.084S459.569,59.284,464.034,59.284z"></path> <path d="M82.686,197.963c0.465,0.08,0.925,0.117,1.381,0.117c3.862,0,7.28-2.778,7.957-6.714 c0.758-4.401-2.196-8.581-6.596-9.339c-40.132-6.905-69.26-41.527-69.26-82.322c0-46.062,37.475-83.537,83.537-83.537 c14.293,0,28.395,3.669,40.78,10.611c3.893,2.183,8.821,0.795,11.004-3.099c2.183-3.894,0.795-8.823-3.099-11.004 C133.595,4.383,116.76,0,99.705,0C44.727,0,0,44.727,0,99.705C0,148.395,34.775,189.718,82.686,197.963z"></path> <path d="M271.629,330.914h-80.303c-4.465,0-8.084,3.618-8.084,8.084c0,4.466,3.62,8.084,8.084,8.084h80.303 c4.465,0,8.084-3.618,8.084-8.084C279.714,334.532,276.094,330.914,271.629,330.914z"></path> <path d="M406.232,479.663c4.465,0,8.084-3.618,8.084-8.084c0-4.466-3.62-8.084-8.084-8.084h-20.884 c-4.465,0-8.084,3.618-8.084,8.084c0,4.466,3.62,8.084,8.084,8.084H406.232z"></path> <path d="M503.916,431.158h-10.779c-4.465,0-8.084,3.618-8.084,8.084c0,4.466,3.62,8.084,8.084,8.084h10.779 c4.465,0,8.084-3.618,8.084-8.084C512,434.776,508.38,431.158,503.916,431.158z"></path> <path d="M406.905,347.082c4.465,0,8.084-3.618,8.084-8.084c0-4.466-3.62-8.084-8.084-8.084h-97.011 c-4.465,0-8.084,3.618-8.084,8.084c0,4.466,3.62,8.084,8.084,8.084H406.905z"></path> <path d="M237.137,377.802c0,4.466,3.62,8.084,8.084,8.084h194.021c4.465,0,8.084-3.618,8.084-8.084 c0-4.466-3.62-8.084-8.084-8.084H245.221C240.756,369.718,237.137,373.336,237.137,377.802z"></path> <path d="M450.021,242.526c25.26,0,45.81,20.55,45.81,45.811c0,4.466,3.62,8.084,8.084,8.084c4.465,0,8.084-3.619,8.084-8.084 c0-31.437-23.524-57.481-53.895-61.454v-19.388c0-43.091-35.056-78.147-78.147-78.147s-78.147,35.056-78.147,78.147v21.791 c-25.341,8.093-43.116,31.946-43.116,59.051c0,0.899,0.019,1.797,0.058,2.695H127.777 c-15.932-11.173-25.377-29.241-25.377-48.784c0-21.904,11.982-41.993,31.271-52.427c3.551-1.921,5.14-6.167,3.724-9.947 c-2.504-6.684-3.773-13.712-3.773-20.885c0-21.904,11.982-41.993,31.271-52.427c3.551-1.921,5.14-6.167,3.724-9.947 c-2.504-6.684-3.773-13.712-3.773-20.885c0-32.843,26.72-59.563,59.562-59.563h41.629c32.843,0,59.562,26.72,59.562,59.563 c0,7.173-1.27,14.201-3.773,20.885c-1.415,3.78,0.174,8.026,3.724,9.947c7.137,3.86,13.322,9.049,18.382,15.421 c2.777,3.496,7.861,4.08,11.359,1.302c3.497-2.777,4.08-7.862,1.302-11.358c-5.009-6.308-10.888-11.702-17.532-16.098 c1.797-6.528,2.706-13.262,2.706-20.098c0-12.486-3.035-24.274-8.411-34.667c2.432-2.127,5.576-3.337,8.875-3.337h75.453 c7.43,0,13.474,6.044,13.474,13.474c0,4.466,3.62,8.084,8.084,8.084c4.465,0,8.084-3.619,8.084-8.084 c0-16.344-13.297-29.642-29.642-29.642h-75.453c-6.515,0-12.756,2.144-17.832,5.965C310.497,10.723,289.495,0,266.036,0h-41.629 c-41.759,0-75.731,33.973-75.731,75.732c0,6.838,0.909,13.573,2.707,20.099c-21.086,13.96-33.929,37.584-33.929,63.158 c0,6.838,0.909,13.573,2.707,20.099c-21.086,13.961-33.929,37.585-33.929,63.158c0,18.164,6.412,35.321,17.772,48.784H67.368 C30.222,291.032,0,321.253,0,358.4c0,20.814,9.397,40.132,25.782,53.003c3.51,2.76,8.593,2.148,11.351-1.364 c2.758-3.511,2.147-8.593-1.364-11.35c-12.457-9.786-19.602-24.47-19.602-40.289c0-28.231,22.969-51.2,51.2-51.2h377.263 c28.231,0,51.2,22.969,51.2,51.2c0,28.231-22.969,51.2-51.2,51.2h-173.9c-4.465,0-8.084,3.619-8.084,8.084 s3.62,8.084,8.084,8.084h173.9c37.146,0,67.368-30.221,67.368-67.368c0-37.148-30.222-67.368-67.368-67.368h-169.69 c-0.052-0.897-0.079-1.796-0.079-2.695c0-21.702,15.41-40.582,36.64-44.891c3.768-0.765,6.476-4.078,6.476-7.924v-28.027 c0-34.176,27.803-61.979,61.979-61.979s61.979,27.803,61.979,61.979v26.947C441.937,238.908,445.556,242.526,450.021,242.526z"></path> </g> </g> </g> </g></svg>